<svg xmlns="http://www.w3.org/2000/svg" xmlns:xlink="http://www.w3.org/1999/xlink" version="1.1" x="0px" y="0px" viewBox="-658 911 100 125" enable-background="new -658 911 100 100" xml:space="preserve"><path d="M-641.4,986.9c4.4,0,8-3.6,8-8c0-4.4-3.6-8-8-8c-4.4,0-8,3.6-8,8C-649.3,983.3-645.8,986.9-641.4,986.9z"/><path d="M-636.4,989h-10.3c-4.6,0-8.2,3.1-8.2,7.7v13.3h27v-13.3C-628,992.2-631.7,989-636.4,989z"/><path d="M-584.2,978.3c0,4.4,3.6,8,8,8c4.4,0,8-3.6,8-8c0-4.4-3.6-8-8-8C-580.6,970.3-584.2,973.9-584.2,978.3z"/><path d="M-570.8,989h-10.3c-4.8,0-8.9,3.2-8.9,7.7v13.3h27v-13.3C-563,992.1-566.2,989-570.8,989z"/><path d="M-608.8,986.8c4.5,0,8.1-3.6,8.1-8c0-4.4-3.6-8-8.1-8c-4.5,0-8.1,3.6-8.1,8C-616.9,983.2-613.3,986.8-608.8,986.8z"/><path d="M-597.7,996.4c-2-7-7.4-7.4-8.1-7.4h-0.1h-3.1h-3.1h-0.1c-0.6,0-6,0.4-8.1,7.4l-5.3,13.6h16.6h16.6L-597.7,996.4z"/><polygon points="-622.9,933.3 -615,940.3 -615,914 -654,914 -654,965 -615,965 -615,943.2 -616,942.3 -624.3,934.9 "/><path d="M-584.2,929.9c0,4.4,3.6,8,8,8c4.4,0,8-3.6,8-8c0-4.4-3.6-8-8-8C-580.6,921.9-584.2,925.5-584.2,929.9z"/><path d="M-571.6,941h-4.7h-4.3c-2.5,0-4.7,0.8-6.1,2.3l-8.1,8.1h-7.8l-10.4-9.2l-1.8-1.6l-1.4,1.6l1,0.9l2.2,1.9l7.1,6.4l0.1,0.1  c-1.3,0.4-2.3,1.6-2.3,3.1c0,1.8,1.5,3.3,3.3,3.3h12.6l3.8-3.8V966h12h12v-18.4C-564.2,943.4-567.4,941-571.6,941z"/></svg>